PathFileType	4	(X/Y/Z)	C:/Users/opensim2020/Desktop/walking_exp_matlab/subject06_walking20_straight_01.trc	
DataRate	CameraRate	NumFrames	NumMarkers	Units	OrigDataRate	OrigDataStartFrame	OrigNumFrames	
100.00	100.00	6	43	mm	100.00	748	127	
Frame#	Time	LFHD			RFHD			LBHD			RBHD			C7			T10			CLAV			STRN			RBAK			LSHO			LUPA			LELB			LFRM			LWRA			LWRB			LFIN			RSHO			RUPA			RELB			RFRM			RWRA			RWRB			RFIN			LASI			RASI			LPSI			RPSI			LTHI			LKNE			LTIB			LANK			LHEE			LTOE			RTHI			RKNE			RTIB			RANK			RHEE			RTOE			*39			*40			*41			*42			
		X1	Y1	Z1	X2	Y2	Z2	X3	Y3	Z3	X4	Y4	Z4	X5	Y5	Z5	X6	Y6	Z6	X7	Y7	Z7	X8	Y8	Z8	X9	Y9	Z9	X10	Y10	Z10	X11	Y11	Z11	X12	Y12	Z12	X13	Y13	Z13	X14	Y14	Z14	X15	Y15	Z15	X16	Y16	Z16	X17	Y17	Z17	X18	Y18	Z18	X19	Y19	Z19	X20	Y20	Z20	X21	Y21	Z21	X22	Y22	Z22	X23	Y23	Z23	X24	Y24	Z24	X25	Y25	Z25	X26	Y26	Z26	X27	Y27	Z27	X28	Y28	Z28	X29	Y29	Z29	X30	Y30	Z30	X31	Y31	Z31	X32	Y32	Z32	X33	Y33	Z33	X34	Y34	Z34	X35	Y35	Z35	X36	Y36	Z36	X37	Y37	Z37	X38	Y38	Z38	X39	Y39	Z39	X40	Y40	Z40	X41	Y41	Z41	X42	Y42	Z42	X43	Y43	Z43	

16	0.150	-1056.51331	-709.72278	1659.30188	-926.55908	-714.78839	1645.37805	-1062.99316	-845.69647	1609.89087	-933.58209	-848.03497	1601.07434	-1005.77106	-853.72314	1454.80994	-989.28534	-924.62189	1134.84949	-1006.12238	-751.87616	1366.82385	-1011.59607	-732.12085	1188.12939	-919.05103	-939.97705	1296.10242	-1166.54175	-805.13824	1402.05774	-1235.99121	-827.37885	1200.24634	-1246.42712	-838.60107	1088.08289	-1270.00085	-808.69824	940.45380	-1232.34827	-735.94354	832.11230	-1264.10059	-799.26465	820.96594	-1269.59375	-748.66998	745.71515	-845.02466	-788.23413	1406.93848	-749.37677	-842.06311	1217.28809	-735.30267	-844.36621	1095.16858	-721.12366	-823.34338	977.15076	-762.56134	-758.01996	843.27643	-716.45490	-806.97192	840.90350	-719.57471	-765.46912	768.05060	-1108.60229	-775.81732	956.49774	-890.04816	-759.06061	961.27606	-1071.59253	-928.33630	996.75830	-905.05756	-908.31488	1001.91040	-1175.52246	-798.93390	651.97485	-1157.72839	-751.26276	495.25296	-1140.82507	-889.50732	287.84854	-1099.04224	-970.42487	136.58664	-1046.16333	-1005.06342	135.04715	-1124.00439	-856.61273	54.89779	-841.43231	-812.42145	630.02454	-874.01190	-806.14063	506.38876	-870.64307	-882.87585	248.91753	-913.97156	-932.34485	68.40132	-952.66455	-980.34125	44.89429	-926.80847	-784.44971	33.18704	-1000.76776	-811.50073	1699.76306									 
17	0.160	-1057.42798	-697.73804	1658.51917	-927.30139	-702.07550	1644.90613	-1062.93152	-833.83337	1609.45239	-933.50873	-835.44537	1601.00098	-1005.33575	-841.92322	1454.39355	-988.46240	-912.51129	1134.29614	-1006.18225	-740.18787	1366.27368	-1011.40607	-720.35162	1187.67944	-917.70746	-927.77625	1295.60144	-1166.40210	-794.31079	1401.68445	-1235.68994	-819.19196	1199.82312	-1246.92273	-832.33490	1088.11877	-1271.41858	-806.56268	939.75934	-1234.77441	-737.24091	828.73334	-1266.71802	-800.94183	820.13147	-1272.36633	-753.34460	742.96082	-844.97125	-775.75262	1406.76416	-748.31311	-827.82263	1217.19092	-733.86426	-828.93909	1095.19873	-720.06903	-804.96857	977.81219	-762.53674	-736.41754	846.04645	-716.08380	-784.88715	842.17230	-719.76129	-741.33545	770.41699	-1108.07825	-762.85181	956.67743	-889.57001	-747.19440	960.54657	-1071.71094	-915.78052	996.32910	-905.17267	-896.37030	1001.18976	-1176.22473	-780.79340	653.28046	-1157.70068	-730.34814	497.77802	-1140.33240	-858.71637	283.56125	-1098.69751	-931.70074	127.92335	-1045.46838	-965.94006	124.39777	-1124.56909	-814.12433	52.61837	-841.65076	-805.15741	629.05518	-873.42371	-801.08575	505.20978	-870.81866	-880.90466	248.44157	-914.22852	-932.15759	68.49149	-952.89258	-980.45953	45.23496	-926.73749	-784.42310	33.03915	-1001.06335	-799.04456	1699.39709									 
18	0.170	-1058.13843	-685.61938	1657.52429	-928.19879	-689.30457	1644.24805	-1062.89050	-821.91986	1608.75537	-933.37775	-822.92303	1600.53955	-1004.92633	-829.93713	1453.71045	-987.71436	-900.42523	1133.45410	-1006.45709	-728.30560	1365.53003	-1011.20587	-708.61200	1186.96362	-916.56628	-915.49426	1294.81689	-1166.24072	-783.49451	1400.64600	-1235.94543	-811.03400	1199.44934	-1247.35718	-825.93494	1087.92896	-1272.85583	-804.32263	939.08264	-1237.02551	-738.61023	825.50067	-1269.28625	-802.38623	819.38568	-1275.07312	-757.63153	740.36072	-845.00360	-763.18323	1406.23840	-747.33887	-813.69537	1216.84998	-732.46844	-813.64587	1095.04004	-719.02344	-786.73602	978.38312	-762.65405	-714.83044	848.83386	-715.85724	-762.78436	843.39349	-720.04303	-717.26093	773.08936	-1107.49219	-749.81091	956.54218	-888.93439	-735.16028	959.86316	-1071.94116	-903.11365	995.61847	-905.21930	-884.46960	1000.28900	-1176.83691	-764.10547	654.31335	-1157.69836	-710.00519	499.96637	-1140.28467	-828.87354	279.24707	-1098.58618	-892.34631	119.63452	-1044.97009	-926.51038	114.27504	-1125.27002	-770.91809	50.95023	-841.92163	-797.71307	627.97894	-873.16321	-796.18835	503.87964	-870.93066	-879.28241	248.02896	-914.44073	-932.06415	68.60039	-953.16382	-980.52930	45.51426	-926.61169	-784.39551	32.89334	-1001.38501	-786.61322	1698.73120									 
19	0.180	-1058.95837	-673.60126	1656.32007	-928.99213	-676.49536	1643.22595	-1062.83350	-809.95294	1607.82458	-933.36249	-810.19550	1599.79797	-1004.60846	-818.11407	1452.80933	-987.11090	-888.25525	1132.39685	-1006.43787	-716.56219	1364.53149	-1011.14862	-696.77106	1186.07019	-915.46661	-903.22809	1293.83911	-1166.28564	-772.48486	1399.76282	-1236.30933	-802.94318	1198.63831	-1247.77148	-819.50269	1087.61450	-1274.18042	-801.96710	938.43695	-1239.28003	-739.47235	822.60321	-1271.66870	-803.39600	818.66455	-1277.63318	-761.65247	738.10138	-845.05853	-750.57672	1405.51038	-746.49164	-799.49915	1216.29163	-731.03870	-798.39429	1094.64526	-718.05890	-768.55133	978.83240	-762.76843	-693.40454	851.66357	-715.71613	-740.75269	844.58789	-720.33917	-693.31531	775.70105	-1106.97253	-736.80231	955.96564	-888.20703	-723.22815	958.87024	-1072.19763	-890.34375	994.57886	-905.19592	-872.71161	999.22437	-1177.77185	-745.08160	656.03973	-1157.74390	-690.14142	501.75470	-1140.21094	-798.41895	274.85089	-1098.57153	-852.44092	111.75146	-1044.95935	-885.79169	104.29848	-1125.73389	-727.54358	49.77230	-842.14490	-790.26862	626.78082	-872.73737	-791.48346	502.28189	-871.01123	-877.51288	247.64203	-914.63794	-931.93866	68.73312	-953.51917	-980.44556	45.70264	-926.55164	-784.32678	32.72161	-1001.74036	-774.16602	1697.78271									 
20	0.190	-1059.80188	-661.52814	1654.88135	-929.67969	-663.79486	1641.90430	-1062.81555	-797.99640	1606.61292	-933.34357	-797.48969	1598.79944	-1004.37384	-806.14313	1451.69373	-986.62823	-875.99316	1131.05396	-1006.62445	-704.69513	1363.24353	-1011.22229	-684.87347	1184.86877	-914.54333	-890.84808	1292.68896	-1166.21057	-761.49213	1398.39807	-1236.31873	-794.59863	1197.71997	-1247.91675	-813.04230	1087.21106	-1275.53210	-799.48938	937.77087	-1241.35571	-740.42712	819.73840	-1273.98584	-804.22467	818.06641	-1279.97034	-765.37708	735.94775	-845.22357	-737.89404	1404.47595	-745.53369	-785.61151	1215.45667	-729.62762	-783.20081	1094.07690	-717.18372	-750.48370	979.13184	-762.80219	-672.01367	854.64758	-715.80383	-718.99091	845.78015	-720.83307	-669.48230	778.51965	-1106.62769	-723.45264	955.22308	-887.62402	-711.29675	957.56390	-1072.47046	-877.40552	993.26489	-905.37750	-860.64709	997.84448	-1178.23364	-728.49152	656.41437	-1157.88025	-670.76367	503.12177	-1140.31482	-767.62292	270.40189	-1098.76453	-812.24139	104.39943	-1045.48181	-845.87592	95.54831	-1125.79358	-684.10864	48.83163	-842.46527	-782.57147	625.53833	-872.07355	-786.59705	500.90378	-870.94409	-875.75110	247.27188	-914.85913	-931.69110	68.85722	-953.75970	-980.42084	46.10001	-926.49109	-784.24896	32.55259	-1002.05658	-761.66125	1696.61011									 
21	0.200	-1060.79053	-649.53998	1653.23132	-930.47888	-651.00116	1640.39478	-1062.82861	-786.00165	1605.15698	-933.38434	-784.78851	1597.59302	-1004.17883	-794.01898	1450.28040	-986.34766	-863.63916	1129.48987	-1007.18365	-692.72900	1361.73450	-1011.25397	-672.93329	1183.46521	-913.71967	-878.60547	1291.38342	-1166.33081	-750.45734	1396.70056	-1236.33044	-786.25208	1196.55640	-1248.35291	-806.30664	1086.51929	-1276.71313	-796.87726	937.06189	-1243.35486	-741.26270	817.03320	-1276.46387	-805.00562	817.82562	-1282.34509	-768.82782	734.21240	-845.37109	-725.24689	1403.19702	-744.80157	-771.61798	1214.42444	-728.30652	-768.10980	1093.27856	-716.36737	-732.47437	979.36237	-763.05865	-650.89581	857.51929	-715.90350	-697.37537	846.97113	-721.38971	-645.71313	781.36554	-1106.23230	-710.01123	954.18671	-887.14313	-699.27576	956.05396	-1072.77039	-864.26532	991.67426	-905.55664	-848.53900	996.25739	-1178.60876	-712.11493	656.39276	-1158.01514	-651.98016	504.00809	-1140.52332	-736.64832	265.97293	-1099.00525	-771.16650	97.66785	-1045.30225	-803.86896	87.12477	-1125.71277	-640.41156	48.31122	-842.73621	-774.75391	624.14929	-871.56995	-781.38245	499.42657	-870.98163	-873.54242	246.68712	-915.02087	-931.41418	68.98808	-954.03290	-980.30457	46.43969	-926.29956	-783.93060	32.35531	-1002.32135	-749.15155	1695.20618									 
